:SAMPLES-PER-SECOND 30
:FULLY-SPECIFIED
:DEGREES
116
root  -30.3023 37.2071 0.604497 -26.2543 -84.8115 47.9424
RightUpLeg  -59.9487 -27.9602 17.9295
RightLeg  13.2531 6.0835 6.66389
RightFoot  10.8435 -3.46289 17.9457
RightToes  2.91037e-010 0 -3.6325e-017
Spine  70.9456 -6.14914 3.93153
Spine1  10.5702 -1.51907 -3.86481
HEad  -40.593 -1.89795 0.803742
LeftShoulder1  5.06151 -19.8327 -14.7672
LeftArm  -65.839 -69.5587 16.0593
LeftForeArm  -17.0036 0.605142 -1.28106
LeftHand  -0.244104 0.0205437 5.32207
RightShoulder  -0.0855926 15.5883 -10.1223
RightArm  -70.8396 56.9763 -5.16893
RightForeArm  -18.2852 -1.55975 -3.57079
RightHand  0.959075 0.426912 18.9984
LeftUpLeg  -49.4486 12.883 -14.1516
LeftLeg  43.3273 3.31758 3.76641
LeftFoot  -15.7539 0.244028 4.12277
LeftToes  -1.10052e-010 1.3781e-010 -2.1811e-011
117
root  -29.3354 37.1734 0.748535 -20.1002 -85.5621 41.3253
RightUpLeg  -64.6314 -30.2273 22.7663
RightLeg  20.5619 15.033 5.31896
RightFoot  8.6814 -4.44099 25.0539
RightToes  2.91037e-010 0 -3.6325e-017
Spine  71.2293 -5.55686 3.98008
Spine1  9.89759 -1.03952 -2.6278
HEad  -41.2254 -2.28404 -0.0803365
LeftShoulder1  4.96511 -19.6557 -14.4984
LeftArm  -66.7709 -69.9363 16.2214
LeftForeArm  -16.8359 1.77793 -0.820482
LeftHand  -0.244104 0.0205437 5.32207
RightShoulder  -0.323605 15.7901 -11.5304
RightArm  -70.5953 57.0222 -5.59196
RightForeArm  -20.034 -2.7681 -3.69938
RightHand  0.816341 -0.385168 18.9334
LeftUpLeg  -51.3801 13.4398 -14.2952
LeftLeg  43.657 3.19624 3.6768
LeftFoot  -12.8665 0.157673 5.92531
LeftToes  -1.10052e-010 1.3781e-010 -2.1811e-011
118
root  -28.342 37.3584 0.799655 -9.05565 -86.913 29.7929
RightUpLeg  -62.621 -25.4966 14.1398
RightLeg  30.5511 5.79791 3.30109
RightFoot  5.69806 -2.95753 19.6226
RightToes  2.91037e-010 0 -3.6325e-017
Spine  71.9933 -4.86515 4.49151
Spine1  10.1438 -0.456724 -2.06494
HEad  -41.8374 -2.40616 -0.121802
LeftShoulder1  5.05136 -19.9915 -14.5532
LeftArm  -69.633 -69.6679 18.8119
LeftForeArm  -15.7725 1.74101 -0.309139
LeftHand  -0.244104 0.0205437 5.32207
RightShoulder  -0.462809 16.0364 -12.3216
RightArm  -70.1317 56.8082 -5.71426
RightForeArm  -22.3891 -3.08497 -3.59959
RightHand  0.702544 -0.836063 18.0495
LeftUpLeg  -52.35 14.9064 -13.9162
LeftLeg  42.4161 2.57734 2.92898
LeftFoot  -9.66366 -0.0388315 6.69842
LeftToes  -1.10052e-010 1.3781e-010 -2.1811e-011
119
root  -27.421 37.5998 0.743288 5.46315 -87.5457 15.315
RightUpLeg  -62.2269 -22.37 9.36512
RightLeg  41.4455 -3.25407 -3.37599
RightFoot  3.16853 -1.21532 9.8436
RightToes  2.91037e-010 0 -3.6325e-017
Spine  72.4933 -4.68571 4.97579
Spine1  10.234 -0.186234 -2.13328
HEad  -41.6192 -2.15668 -0.201125
LeftShoulder1  5.52457 -20.7821 -15.9089
LeftArm  -71.6435 -68.5037 21.7616
LeftForeArm  -14.9685 0.460667 -0.244971
LeftHand  -0.244104 0.0205437 5.32207
RightShoulder  -0.428804 16.4637 -12.0665
RightArm  -69.8443 56.9982 -4.9075
RightForeArm  -23.8064 -2.8565 -3.56433
RightHand  0.699815 -0.548993 16.8724
LeftUpLeg  -52.5306 16.456 -14.2312
LeftLeg  38.9157 1.75781 1.91058
LeftFoot  -7.90501 -0.182996 7.67012
LeftToes  -1.10052e-010 1.3781e-010 -2.1811e-011
120
root  -26.5779 37.8182 0.563885 14.3685 -87.4043 7.17802
RightUpLeg  -61.598 -20.16 5.93347
RightLeg  50.5087 -7.14902 -9.38555
RightFoot  3.41548 -0.576527 4.645
RightToes  2.91037e-010 0 -3.6325e-017
Spine  72.4859 -4.68163 5.29469
Spine1  9.78298 -0.141871 -2.1953
HEad  -41.1348 -2.08061 -0.666367
LeftShoulder1  5.83675 -21.396 -16.6532
LeftArm  -72.5146 -67.2892 23.2257
LeftForeArm  -14.6074 -0.695817 -0.128621
LeftHand  -0.244104 0.0205437 5.32207
RightShoulder  -0.295943 16.3638 -11.3146
RightArm  -69.8217 57.8529 -3.85204
RightForeArm  -23.6678 -2.74408 -3.59077
RightHand  0.806098 0.406948 16.0601
LeftUpLeg  -53.1732 17.4332 -15.2218
LeftLeg  34.851 0.614676 0.82425
LeftFoot  -5.58251 -0.407964 8.74246
LeftToes  -1.10052e-010 1.3781e-010 -2.1811e-011
121
root  -25.7948 38.0026 0.25861 15.3142 -86.9542 7.2205
RightUpLeg  -59.3766 -18.0635 3.05233
RightLeg  55.2597 -5.38439 -8.6743
RightFoot  4.6228 -0.674815 5.03391
RightToes  2.91037e-010 0 -3.6325e-017
Spine  72.5086 -4.51508 5.24815
Spine1  8.99932 -0.105873 -2.09969
HEad  -40.7224 -2.34941 -1.15748
LeftShoulder1  5.89855 -21.8149 -16.4901
LeftArm  -72.7697 -66.3241 24.0617
LeftForeArm  -14.1136 -0.63104 0.0807487
LeftHand  -0.244104 0.0205437 5.32207
RightShoulder  -0.145121 16.3709 -10.4459
RightArm  -69.029 58.414 -3.46667
RightForeArm  -22.9987 -2.91306 -3.29856
RightHand  0.941599 1.58985 15.4562
LeftUpLeg  -54.2418 17.7231 -16.1927
LeftLeg  31.5384 -0.613036 -0.0571539
LeftFoot  -1.8761 -0.757625 9.28437
LeftToes  -1.10052e-010 1.3781e-010 -2.1811e-011
122
root  -25.0478 38.128 -0.150973 11.543 -86.2701 11.7352
RightUpLeg  -55.4421 -16.3224 1.30981
RightLeg  54.8016 -2.72921 -4.62247
RightFoot  2.18439 -0.816752 7.08184
RightToes  2.91037e-010 0 -3.6325e-017
Spine  72.4846 -4.27124 4.87487
Spine1  9.00663 -0.0167445 -2.04134
HEad  -40.4203 -2.75201 -1.16345
LeftShoulder1  5.82734 -22.2591 -15.7464
LeftArm  -72.7984 -65.5191 25.2031
LeftForeArm  -13.7887 0.235663 0.169233
LeftHand  -0.244104 0.0205437 5.32207
RightShoulder  -0.00353744 16.3843 -9.63019
RightArm  -67.867 58.6542 -3.56703
RightForeArm  -23.2501 -2.70083 -2.67737
RightHand  0.993196 2.48498 14.3796
LeftUpLeg  -54.914 17.682 -17.008
LeftLeg  28.4036 -1.77886 -0.696646
LeftFoot  1.61214 -1.05339 9.18057
LeftToes  -1.10052e-010 1.3781e-010 -2.1811e-011
123
root  -24.2908 38.2052 -0.60313 9.80229 -85.6017 14.039
RightUpLeg  -51.5127 -15.7126 1.59813
RightLeg  50.1511 -2.28647 -3.25824
RightFoot  -4.35811 -0.510429 7.65284
RightToes  2.91037e-010 0 -3.6325e-017
Spine  72.2281 -4.07446 4.66473
Spine1  9.53868 -0.0290481 -1.99967
HEad  -39.9299 -2.94583 -0.71017
LeftShoulder1  5.80913 -22.7748 -15.1791
LeftArm  -71.7907 -64.6886 25.8621
LeftForeArm  -14.0515 0.908379 -0.100516
LeftHand  -0.244104 0.0205437 5.32207
RightShoulder  0.148155 16.2449 -8.75037
RightArm  -67.0182 59.0703 -2.74152
RightForeArm  -24.1334 -1.72661 -2.14258
RightHand  0.925035 2.87317 12.7245
LeftUpLeg  -55.1653 17.9886 -17.9612
LeftLeg  24.5757 -3.27549 -1.29627
LeftFoot  4.3896 -1.26312 8.92331
LeftToes  -1.10052e-010 1.3781e-010 -2.1811e-011
124
root  -23.4577 38.225 -1.05861 8.01265 -85.2468 16.3766
RightUpLeg  -49.6549 -16.2184 3.33508
RightLeg  44.3957 -3.35527 -3.82743
RightFoot  -10.2694 -0.122261 5.17307
RightToes  2.91037e-010 0 -3.6325e-017
Spine  72.0517 -3.89994 4.5092
Spine1  9.67891 -0.122368 -2.19643
HEad  -39.4884 -2.92694 -0.258786
LeftShoulder1  5.786 -23.2069 -14.6884
LeftArm  -69.6281 -63.8371 25.3822
LeftForeArm  -14.4297 1.38686 -0.545686
LeftHand  -0.244104 0.0205437 5.32207
RightShoulder  0.262645 15.8486 -8.05637
RightArm  -66.541 59.9318 -0.699803
RightForeArm  -24.191 -0.872571 -2.02672
RightHand  0.856994 3.17262 11.3446
LeftUpLeg  -55.7811 18.8846 -19.6142
LeftLeg  20.7179 -5.44627 -1.85261
LeftFoot  7.85729 -1.57965 9.00992
LeftToes  -1.10052e-010 1.3781e-010 -2.1811e-011
125
root  -22.5192 38.2623 -1.4823 4.82733 -85.1901 19.8383
RightUpLeg  -49.8899 -16.7364 5.11956
RightLeg  40.5187 -3.94094 -3.89706
RightFoot  -11.5505 -0.0647162 0.840246
RightToes  2.91037e-010 0 -3.6325e-017
Spine  72.1115 -3.71357 4.23857
Spine1  9.27599 -0.166089 -2.65462
HEad  -39.6102 -2.91892 -0.197833
LeftShoulder1  5.70216 -23.6069 -13.9957
LeftArm  -67.4614 -62.926 24.8798
LeftForeArm  -14.2979 2.15886 -0.911644
LeftHand  -0.244104 0.0205437 5.32207
RightShoulder  0.269188 15.2066 -7.96469
RightArm  -66.4611 61.0711 0.804065
RightForeArm  -23.0095 -1.10608 -2.24953
RightHand  0.897791 3.8816 10.9286
LeftUpLeg  -55.9535 19.382 -20.1908
LeftLeg  16.8625 -6.69915 -2.5815
LeftFoot  12.7385 -1.88282 8.46653
LeftToes  -1.10052e-010 1.3781e-010 -2.1811e-011
126
root  -21.5413 38.3333 -1.85744 2.49031 -84.863 22.1409
RightUpLeg  -50.87 -16.9686 6.15326
RightLeg  38.7936 -3.74911 -3.50404
RightFoot  -9.68624 -0.0476688 -1.44354
RightToes  2.91037e-010 0 -3.6325e-017
Spine  72.3815 -3.74463 4.10907
Spine1  9.25099 -0.259714 -2.78042
HEad  -40.0933 -2.93192 -0.369372
LeftShoulder1  5.68546 -24.1053 -13.5048
LeftArm  -66.3209 -61.9371 25.4429
LeftForeArm  -13.992 2.91842 -1.14501
LeftHand  -0.244104 0.0205437 5.32207
RightShoulder  0.212401 14.57 -8.2636
RightArm  -67.2442 62.1582 0.240567
RightForeArm  -21.8947 -1.86605 -2.46913
RightHand  0.979668 4.75123 10.8737
LeftUpLeg  -53.6288 16.0827 -14.165
LeftLeg  12.1621 -2.23472 -4.61944
LeftFoot  17.5288 -1.25838 4.53506
LeftToes  -1.10052e-010 1.3781e-010 -2.1811e-011
127
root  -20.6004 38.3662 -2.18049 2.97412 -84.0267 21.5316
RightUpLeg  -51.8377 -17.8114 7.0773
RightLeg  37.588 -3.33962 -3.02811
RightFoot  -7.99023 -0.00633802 -1.65626
RightToes  2.91037e-010 0 -3.6325e-017
Spine  72.4372 -3.97352 4.33921
Spine1  9.80386 -0.61211 -2.17072
HEad  -40.162 -2.83134 -0.17589
LeftShoulder1  5.76221 -24.5053 -13.4764
LeftArm  -66.269 -61.182 26.3798
LeftForeArm  -14.3779 3.08372 -1.19401
LeftHand  -0.244104 0.0205437 5.32207
RightShoulder  0.209633 14.2863 -8.26019
RightArm  -68.759 62.7713 -1.46311
RightForeArm  -21.9924 -1.65032 -2.43426
RightHand  0.944409 4.91283 10.29
LeftUpLeg  -51.1601 11.6279 -6.60124
LeftLeg  7.89229 1.91885 -6.86539
LeftFoot  19.8628 1.1306 -4.54071
LeftToes  -1.10052e-010 1.3781e-010 -2.1811e-011
128
root  -19.6854 38.3396 -2.43923 3.27043 -83.1244 21.1389
RightUpLeg  -52.9329 -19.3007 8.37005
RightLeg  36.1692 -2.65906 -2.35594
RightFoot  -7.02978 0.0493747 -2.53636
RightToes  2.91037e-010 0 -3.6325e-017
Spine  72.2238 -4.17002 4.61585
Spine1  10.4126 -1.12674 -1.41057
HEad  -39.5578 -2.67623 0.688583
LeftShoulder1  5.74305 -24.4803 -13.4217
LeftArm  -66.7048 -61.0884 26.5887
LeftForeArm  -15.5642 2.9045 -1.0835
LeftHand  -0.244104 0.0205437 5.32207
RightShoulder  0.28176 14.368 -7.80457
RightArm  -69.9162 62.7285 -2.33575
RightForeArm  -22.647 -0.273992 -2.22484
RightHand  0.805192 4.18612 9.45222
LeftUpLeg  -51.9812 13.0733 -7.92699
LeftLeg  8.78118 -4.38687 -6.83182
LeftFoot  18.2033 3.75675 -14.73
LeftToes  -1.10052e-010 1.3781e-010 -2.1811e-011
129
root  -18.7179 38.3397 -2.61104 0.439758 -82.6117 23.7407
RightUpLeg  -53.9635 -20.4076 9.2835
RightLeg  34.6016 -1.78226 -1.58309
RightFoot  -5.35129 0.186456 -4.23563
RightToes  2.91037e-010 0 -3.6325e-017
Spine  72.0724 -4.31129 4.48414
Spine1  10.8536 -1.47152 -1.38536
HEad  -38.8183 -2.61933 1.70249
LeftShoulder1  5.53866 -24.0623 -12.9573
LeftArm  -66.8293 -61.5389 26.1133
LeftForeArm  -16.7361 2.93746 -1.06159
LeftHand  -0.244104 0.0205437 5.32207
RightShoulder  0.324587 14.4396 -7.5381
RightArm  -70.0767 62.3579 -2.17586
RightForeArm  -22.5352 0.733126 -2.08927
RightHand  0.734116 3.46442 9.36017
LeftUpLeg  -55.0929 17.6093 -14.784
LeftLeg  16.0312 -13.6279 -5.08177
LeftFoot  12.7408 3.87702 -18.2432
LeftToes  -1.10052e-010 1.3781e-010 -2.1811e-011
130
root  -17.7065 38.3711 -2.65099 -3.05626 -82.6659 26.7594
RightUpLeg  -54.4471 -20.6295 9.52898
RightLeg  32.7647 -1.27084 -1.1315
RightFoot  -2.87294 0.354392 -5.06941
RightToes  2.91037e-010 0 -3.6325e-017
Spine  72.1138 -4.4749 4.23808
Spine1  11.2588 -1.52547 -1.91257
HEad  -38.3895 -2.58851 2.07215
LeftShoulder1  5.33195 -23.6348 -12.4775
LeftArm  -66.1854 -61.9463 25.4166
LeftForeArm  -17.1726 3.05984 -1.2815
LeftHand  -0.244104 0.0205437 5.32207
RightShoulder  0.275409 14.3229 -7.84097
RightArm  -69.7091 62.1405 -2.20949
RightForeArm  -21.6614 0.305093 -2.14334
RightHand  0.781857 3.38922 10.0638
LeftUpLeg  -55.3631 15.7594 -12.3396
LeftLeg  24.9771 -7.51497 -3.21401
LeftFoot  5.71259 1.9625 -13.0588
LeftToes  -1.10052e-010 1.3781e-010 -2.1811e-011
